<?xml version="1.0" encoding="utf-8"?><!-- Generator: Adobe Illustrator 21.0.2, SVG Export Plug-In . SVG Version: 6.00 Build 0)  -->
<svg id="Layer_1" style="enable-background:new 0 0 38 24;" version="1.1" viewBox="0 0 38 24" x="0px"
	 xml:space="preserve" xmlns="http://www.w3.org/2000/svg" y="0px">
<style type="text/css">
	.st0 {
		fill: #e8e8e8;
	}

	.st1 {
		fill: #ffffff;
	}

	.st2 {
		fill: #008cd6;
	}
</style>
	<title>lawson</title>
	<g>
	<path class="st0" d="M35-0.1H3c-1.7,0-3,1.3-3,3v18c0,1.7,1.3,3,3,3h32c1.7,0,3-1.3,3-3v-18C38,1.3,36.7-0.1,35-0.1z"/>
		<path class="st1" d="M35,0.9c1.1,0,2,0.9,2,2v18c0,1.1-0.9,2-2,2H3c-1.1,0-2-0.9-2-2v-18c0-1.1,0.9-2,2-2H35"/>
</g>
	<g>
	<polygon class="st2"
			 points="2.7,9.3 2.7,14.4 3.7,14.4 3.7,12.2 5.9,12.2 5.9,11.2 3.7,11.2 3.7,10.3 6,10.3 6,9.3 	"/>
		<path class="st2" d="M9,13.7V12c0-0.6-0.3-1.2-1.5-1.2c-0.4,0-0.8,0.1-1.1,0.2v0.9c0.3-0.2,0.6-0.3,1-0.3c0.3,0,0.6,0.1,0.6,0.5
		l0,0C7.8,12,7.6,12,7.4,12c-0.7-0.1-1.3,0.4-1.4,1.1c0,0.1,0,0.2,0,0.2c0,0.6,0.5,1.1,1.1,1.1c0.1,0,0.1,0,0.2,0
		c0.3,0,0.6-0.1,0.8-0.3c0,0.1,0,0.2,0.1,0.2h1C9.1,14.3,9,14.1,9,13.7z M7,13.2c0-0.3,0.2-0.5,0.6-0.5c0.1,0,0.3,0,0.4,0.1v0.6
		c-0.1,0.1-0.3,0.2-0.5,0.2C7.2,13.6,7,13.4,7,13.2z"/>
		<path class="st2" d="M30.1,13.7V12c0-0.6-0.3-1.2-1.5-1.2c-0.4,0-0.8,0.1-1.1,0.2v0.9c0.3-0.2,0.6-0.3,1-0.3c0.3,0,0.6,0.1,0.6,0.5
		l0,0C28.9,12,28.7,12,28.5,12c-0.7-0.1-1.3,0.4-1.4,1.1c0,0.1,0,0.1,0,0.2c0,0.6,0.5,1.1,1.1,1.1c0,0,0.1,0,0.1,0
		c0.3,0,0.6-0.1,0.8-0.3c0,0.1,0,0.2,0.1,0.2h1.1C30.1,14.3,30.1,14.1,30.1,13.7z M28.1,13.2c0-0.3,0.2-0.5,0.6-0.5
		c0.1,0,0.3,0,0.4,0.1v0.6c-0.1,0.1-0.3,0.2-0.5,0.2C28.2,13.6,28.1,13.4,28.1,13.2z"/>
		<path class="st2" d="M13.3,10.8c-0.4,0-0.8,0.1-1,0.4c-0.2-0.3-0.6-0.4-0.9-0.4c-0.3,0-0.7,0.1-0.9,0.3v-0.3H9.5v3.6h1V12
		c0.1-0.2,0.3-0.3,0.5-0.3c0.3,0,0.5,0.2,0.5,0.6v2.1h1V12c0.1-0.2,0.3-0.2,0.5-0.2c0.3,0,0.5,0.2,0.5,0.6v2.1h1v-2.5
		c0-0.6-0.4-1.1-1-1.1C13.4,10.8,13.3,10.8,13.3,10.8z"/>
		<rect class="st2" height="5.1" width="1" x="16.7" y="9.3"/>
		<polygon class="st2" points="24.3,10.9 23,9.3 21.9,9.3 21.9,14.4 23,14.4 23,10.9 24.3,12.6 25.6,10.9 25.6,14.4 26.7,14.4
		26.7,9.3 25.6,9.3 	"/>
		<rect class="st2" height="3.6" width="1" x="15.1" y="10.8"/>
		<path class="st2"
			  d="M15.6,9.2c-0.3,0-0.6,0.3-0.6,0.6c0,0.3,0.3,0.6,0.6,0.6s0.6-0.3,0.6-0.6l0,0C16.2,9.5,15.9,9.2,15.6,9.2z"/>
		<path class="st2" d="M31.5,11.2v-0.4h-0.9v3.6h1v-2.2c0.2-0.2,0.4-0.3,0.7-0.3c0.2,0,0.4,0.1,0.6,0.2v-1.1
		c-0.1-0.1-0.3-0.1-0.5-0.1C32,10.8,31.7,10.9,31.5,11.2z"/>
		<path class="st2" d="M34.9,13.5c-0.3,0-0.4-0.2-0.4-0.5v-1.2h0.8v-0.9h-0.8V9.5l-1,0.4v0.9H33v0.9h0.5v1.4c0,0.7,0.3,1.3,1.2,1.3
		c0.2,0,0.4,0,0.6-0.1v-0.9C35.2,13.4,35,13.5,34.9,13.5z"/>
		<polygon class="st2" points="18.9,15.3 20,15.3 21.6,10.8 20.6,10.8 19.9,12.8 19.2,10.8 18,10.8 19.4,14.1 	"/>
</g>
</svg>
