<?xml version="1.0" encoding="utf-8"?>
<svg viewBox="237.536 226.197 153.979 66.535" width="153.979" height="66.535" xmlns="http://www.w3.org/2000/svg">
  <path d="M 238.709 277.616 L 243.707 254.224 L 251.357 254.224 Q 255.063 254.224 257.154 254.666 Q 259.245 255.108 260.095 256.247 Q 260.945 257.386 260.945 259.494 Q 260.945 260.718 260.69 262.333 Q 260.435 263.948 259.993 266.056 Q 259.381 268.946 258.837 270.986 Q 258.293 273.026 257.528 274.335 Q 256.763 275.644 255.556 276.358 Q 254.349 277.072 252.445 277.344 Q 250.541 277.616 247.651 277.616 Z M 244.421 273.808 L 247.345 273.808 Q 249.113 273.808 250.252 273.723 Q 251.391 273.638 252.122 273.247 Q 252.853 272.856 253.329 272.023 Q 253.805 271.19 254.213 269.711 Q 254.621 268.232 255.131 265.92 Q 255.505 264.05 255.743 262.707 Q 255.981 261.364 255.981 260.48 Q 255.981 259.596 255.709 259.086 Q 255.437 258.576 254.808 258.355 Q 254.179 258.134 253.176 258.083 Q 252.173 258.032 250.677 258.032 L 247.753 258.032 Z" style="fill: rgb(0, 41, 82); white-space: pre;"/>
  <path d="M 262.57 277.616 L 267.568 254.224 L 274.028 254.224 L 277.02 269.558 L 277.224 269.558 L 286.744 254.224 L 293.34 254.224 L 288.342 277.616 L 283.65 277.616 L 287.152 261.364 L 286.914 261.364 L 276.986 277.616 L 273.756 277.616 L 270.764 261.364 L 270.56 261.364 L 267.126 277.616 Z" style="fill: rgb(0, 41, 82); white-space: pre;"/>
  <path d="M 294.752 269.762 L 295.534 266.09 L 304.714 266.09 L 303.932 269.762 Z" style="fill: rgb(0, 41, 82); white-space: pre;"/>
  <path d="M 306.917 277.616 L 311.915 254.224 L 319.565 254.224 Q 323.271 254.224 325.362 254.666 Q 327.453 255.108 328.303 256.247 Q 329.153 257.386 329.153 259.494 Q 329.153 260.718 328.898 262.333 Q 328.643 263.948 328.201 266.056 Q 327.589 268.946 327.045 270.986 Q 326.501 273.026 325.736 274.335 Q 324.971 275.644 323.764 276.358 Q 322.557 277.072 320.653 277.344 Q 318.749 277.616 315.859 277.616 Z M 312.629 273.808 L 315.553 273.808 Q 317.321 273.808 318.46 273.723 Q 319.599 273.638 320.33 273.247 Q 321.061 272.856 321.537 272.023 Q 322.013 271.19 322.421 269.711 Q 322.829 268.232 323.339 265.92 Q 323.713 264.05 323.951 262.707 Q 324.189 261.364 324.189 260.48 Q 324.189 259.596 323.917 259.086 Q 323.645 258.576 323.016 258.355 Q 322.387 258.134 321.384 258.083 Q 320.381 258.032 318.885 258.032 L 315.961 258.032 Z" style="fill: rgb(0, 41, 82); white-space: pre;"/>
  <path d="M 329.63 277.616 L 330.548 273.264 L 335.41 273.264 L 334.492 277.616 Z" style="fill: rgb(0, 41, 82); white-space: pre;"/>
  <path d="M 348.463 277.888 Q 347.001 277.888 345.352 277.82 Q 343.703 277.752 342.139 277.633 Q 340.575 277.514 339.317 277.378 L 340.099 273.638 Q 341.323 273.74 342.649 273.842 Q 343.975 273.944 345.216 274.012 Q 346.457 274.08 347.341 274.08 Q 348.463 274.08 349.262 274.029 Q 350.061 273.978 350.639 273.859 Q 351.217 273.74 351.659 273.536 Q 351.999 273.332 352.254 272.975 Q 352.509 272.618 352.713 272.176 Q 352.917 271.734 353.036 271.241 Q 353.155 270.748 353.206 270.289 Q 353.257 269.83 353.257 269.524 Q 353.257 269.014 353.019 268.742 Q 352.781 268.47 352.169 268.334 Q 351.557 268.198 350.435 268.062 L 345.267 267.314 Q 343.227 267.042 342.479 266.039 Q 341.731 265.036 341.731 263.302 Q 341.731 262.69 341.833 261.925 Q 341.935 261.16 342.105 260.344 Q 342.581 258.236 343.431 256.961 Q 344.281 255.686 345.522 255.04 Q 346.763 254.394 348.412 254.173 Q 350.061 253.952 352.067 253.952 Q 353.529 253.952 355.059 254.02 Q 356.589 254.088 357.949 254.224 Q 359.309 254.36 360.193 254.564 L 359.445 258.202 Q 358.493 258.066 357.286 257.964 Q 356.079 257.862 354.821 257.811 Q 353.563 257.76 352.441 257.76 Q 351.387 257.76 350.622 257.828 Q 349.857 257.896 349.313 258.032 Q 348.769 258.168 348.361 258.372 Q 347.953 258.61 347.647 259.018 Q 347.341 259.426 347.171 259.936 Q 347.001 260.446 346.916 260.956 Q 346.831 261.466 346.831 261.976 Q 346.831 262.656 347.324 262.877 Q 347.817 263.098 349.075 263.268 L 354.073 263.948 Q 355.263 264.118 356.249 264.458 Q 357.235 264.798 357.813 265.614 Q 358.391 266.43 358.391 268.096 Q 358.391 268.504 358.357 268.963 Q 358.323 269.422 358.238 269.966 Q 358.153 270.51 358.017 271.088 Q 357.507 273.468 356.64 274.845 Q 355.773 276.222 354.583 276.868 Q 353.393 277.514 351.863 277.701 Q 350.333 277.888 348.463 277.888 Z" style="fill: rgb(0, 41, 82); white-space: pre;"/>
  <path d="M 360.772 277.616 L 361.69 273.264 L 366.552 273.264 L 365.634 277.616 Z" style="fill: rgb(0, 41, 82); white-space: pre;"/>
  <path d="M 379.606 277.888 Q 378.144 277.888 376.495 277.82 Q 374.846 277.752 373.282 277.633 Q 371.718 277.514 370.46 277.378 L 371.242 273.638 Q 372.466 273.74 373.792 273.842 Q 375.118 273.944 376.359 274.012 Q 377.6 274.08 378.484 274.08 Q 379.606 274.08 380.405 274.029 Q 381.204 273.978 381.782 273.859 Q 382.36 273.74 382.802 273.536 Q 383.142 273.332 383.397 272.975 Q 383.652 272.618 383.856 272.176 Q 384.06 271.734 384.179 271.241 Q 384.298 270.748 384.349 270.289 Q 384.4 269.83 384.4 269.524 Q 384.4 269.014 384.162 268.742 Q 383.924 268.47 383.312 268.334 Q 382.7 268.198 381.578 268.062 L 376.41 267.314 Q 374.37 267.042 373.622 266.039 Q 372.874 265.036 372.874 263.302 Q 372.874 262.69 372.976 261.925 Q 373.078 261.16 373.248 260.344 Q 373.724 258.236 374.574 256.961 Q 375.424 255.686 376.665 255.04 Q 377.906 254.394 379.555 254.173 Q 381.204 253.952 383.21 253.952 Q 384.672 253.952 386.202 254.02 Q 387.732 254.088 389.092 254.224 Q 390.452 254.36 391.336 254.564 L 390.588 258.202 Q 389.636 258.066 388.429 257.964 Q 387.222 257.862 385.964 257.811 Q 384.706 257.76 383.584 257.76 Q 382.53 257.76 381.765 257.828 Q 381 257.896 380.456 258.032 Q 379.912 258.168 379.504 258.372 Q 379.096 258.61 378.79 259.018 Q 378.484 259.426 378.314 259.936 Q 378.144 260.446 378.059 260.956 Q 377.974 261.466 377.974 261.976 Q 377.974 262.656 378.467 262.877 Q 378.96 263.098 380.218 263.268 L 385.216 263.948 Q 386.406 264.118 387.392 264.458 Q 388.378 264.798 388.956 265.614 Q 389.534 266.43 389.534 268.096 Q 389.534 268.504 389.5 268.963 Q 389.466 269.422 389.381 269.966 Q 389.296 270.51 389.16 271.088 Q 388.65 273.468 387.783 274.845 Q 386.916 276.222 385.726 276.868 Q 384.536 277.514 383.006 277.701 Q 381.476 277.888 379.606 277.888 Z" style="fill: rgb(0, 41, 82); white-space: pre;"/>
  <path d="M 286.671 246.546 L 285.681 246.546 Q 285.373 246.546 285.373 246.238 L 285.373 232.708 Q 285.373 232.4 285.681 232.4 L 290.829 232.4 Q 292.347 232.4 293.205 233.269 Q 294.063 234.138 294.063 235.656 L 294.063 238.098 Q 294.063 239.638 293.205 240.496 Q 292.347 241.354 290.829 241.354 L 287.199 241.354 Q 286.979 241.354 286.979 241.552 L 286.979 246.238 Q 286.979 246.546 286.671 246.546 Z M 287.199 239.924 L 290.609 239.924 Q 292.457 239.924 292.457 238.032 L 292.457 235.722 Q 292.457 233.808 290.609 233.808 L 287.199 233.808 Q 286.979 233.808 286.979 234.006 L 286.979 239.726 Q 286.979 239.924 287.199 239.924 Z" style="fill: rgb(0, 41, 82); white-space: pre;"/>
  <path d="M 298.014 246.546 L 297.024 246.546 Q 296.716 246.546 296.716 246.238 L 296.716 235.634 Q 296.716 235.326 297.024 235.326 L 298.014 235.326 Q 298.322 235.326 298.322 235.634 L 298.322 236.514 L 298.41 236.514 Q 298.63 236.03 299.246 235.678 Q 299.862 235.326 300.698 235.326 L 301.556 235.326 Q 301.842 235.326 301.842 235.634 L 301.842 236.448 Q 301.842 236.602 301.776 236.679 Q 301.71 236.756 301.556 236.734 L 300.368 236.734 Q 299.378 236.734 298.85 237.328 Q 298.322 237.922 298.322 238.956 L 298.322 246.238 Q 298.322 246.546 298.014 246.546 Z" style="fill: rgb(0, 41, 82); white-space: pre;"/>
  <path d="M 308.738 246.546 L 306.846 246.546 Q 305.328 246.546 304.459 245.688 Q 303.59 244.83 303.59 243.29 L 303.59 238.582 Q 303.59 237.042 304.459 236.184 Q 305.328 235.326 306.846 235.326 L 308.738 235.326 Q 310.256 235.326 311.125 236.184 Q 311.994 237.042 311.994 238.582 L 311.994 243.29 Q 311.994 244.83 311.125 245.688 Q 310.256 246.546 308.738 246.546 Z M 307.022 245.138 L 308.562 245.138 Q 310.41 245.138 310.41 243.246 L 310.41 238.626 Q 310.41 236.734 308.562 236.734 L 307.022 236.734 Q 305.174 236.734 305.174 238.626 L 305.174 243.246 Q 305.174 245.138 307.022 245.138 Z" style="fill: rgb(0, 41, 82); white-space: pre;"/>
  <path d="M 314.921 233.478 L 314.921 231.41 Q 314.921 231.102 315.207 231.102 L 316.219 231.102 Q 316.527 231.102 316.527 231.41 L 316.527 233.478 Q 316.527 233.786 316.219 233.786 L 315.207 233.786 Q 314.921 233.786 314.921 233.478 Z M 313.271 249.802 L 312.369 249.802 Q 312.061 249.802 312.061 249.494 L 312.061 248.68 Q 312.061 248.372 312.369 248.372 L 312.875 248.372 Q 314.921 248.372 314.921 246.304 L 314.921 235.634 Q 314.921 235.326 315.229 235.326 L 316.219 235.326 Q 316.527 235.326 316.527 235.634 L 316.527 246.524 Q 316.527 248.042 315.658 248.922 Q 314.789 249.802 313.271 249.802 Z" style="fill: rgb(0, 41, 82); white-space: pre;"/>
  <path d="M 327.37 246.546 L 322.706 246.546 Q 321.188 246.546 320.319 245.688 Q 319.45 244.83 319.45 243.29 L 319.45 238.582 Q 319.45 237.042 320.319 236.184 Q 321.188 235.326 322.706 235.326 L 324.554 235.326 Q 326.072 235.326 326.93 236.184 Q 327.788 237.042 327.788 238.582 L 327.788 241.376 Q 327.788 241.706 327.48 241.706 L 321.254 241.706 Q 321.034 241.706 321.034 241.904 L 321.034 243.246 Q 321.034 245.16 322.882 245.16 L 327.37 245.16 Q 327.678 245.16 327.678 245.468 L 327.678 246.26 Q 327.678 246.546 327.37 246.546 Z M 321.254 240.54 L 326.006 240.54 Q 326.226 240.54 326.226 240.32 L 326.226 238.626 Q 326.226 236.734 324.378 236.734 L 322.882 236.734 Q 321.034 236.734 321.034 238.626 L 321.034 240.32 Q 321.034 240.54 321.254 240.54 Z" style="fill: rgb(0, 41, 82); white-space: pre;"/>
  <path d="M 337.018 245.446 L 337.018 246.26 Q 337.018 246.546 336.71 246.546 L 333.52 246.546 Q 332.002 246.546 331.133 245.688 Q 330.264 244.83 330.264 243.29 L 330.264 238.582 Q 330.264 237.042 331.133 236.184 Q 332.002 235.326 333.52 235.326 L 336.71 235.326 Q 337.018 235.326 337.018 235.634 L 337.018 236.448 Q 337.018 236.734 336.71 236.734 L 333.696 236.734 Q 331.87 236.734 331.87 238.648 L 331.87 243.224 Q 331.87 245.138 333.696 245.138 L 336.71 245.138 Q 337.018 245.138 337.018 245.446 Z" style="fill: rgb(0, 41, 82); white-space: pre;"/>
  <path d="M 339.683 236.734 L 338.473 236.734 Q 338.165 236.734 338.165 236.448 L 338.165 235.634 Q 338.165 235.326 338.473 235.326 L 339.683 235.326 Q 339.903 235.326 339.903 235.128 L 339.903 233.236 Q 339.903 232.928 340.211 232.928 L 341.201 232.928 Q 341.487 232.928 341.487 233.236 L 341.487 235.128 Q 341.487 235.326 341.729 235.326 L 344.061 235.326 Q 344.391 235.326 344.391 235.634 L 344.391 236.448 Q 344.391 236.734 344.061 236.734 L 341.729 236.734 Q 341.487 236.734 341.487 236.932 L 341.487 243.268 Q 341.487 245.138 343.423 245.138 L 344.281 245.138 Q 344.611 245.138 344.611 245.446 L 344.611 246.26 Q 344.611 246.546 344.281 246.546 L 343.225 246.546 Q 341.707 246.546 340.805 245.699 Q 339.903 244.852 339.903 243.334 L 339.903 236.932 Q 339.903 236.734 339.683 236.734 Z" style="fill: rgb(0, 41, 82); white-space: pre;"/>
</svg>